/* XPM */
static char *result[] = {
/* columns rows colors chars-per-pixel */
"64 64 160 2 ",
"   c #010000",
".  c #0D0300",
"X  c #000F00",
"o  c #0D0E00",
"O  c #0E0E0E",
"+  c #170601",
"@  c #180701",
"#  c #001400",
"$  c #0F1003",
"%  c #1C1D00",
"&  c #181301",
"*  c #00001C",
"=  c #111111",
"-  c #240E02",
";  c #271702",
":  c #361904",
">  c #391E04",
",  c #301503",
"<  c #2B2601",
"1  c #2C2B00",
"2  c #242700",
"3  c #3A2304",
"4  c #243D00",
"5  c #373301",
"6  c #59000F",
"7  c #401006",
"8  c #590010",
"9  c #7B0017",
"0  c #651A10",
"q  c #582C0A",
"w  c #65340D",
"e  c #6D380F",
"r  c #6D370F",
"t  c #3F4200",
"y  c #454401",
"u  c #4A4D00",
"i  c #6C420D",
"p  c #71410F",
"a  c #7B540F",
"s  c #6B6F01",
"d  c #7A7F00",
"f  c #787D20",
"g  c #4E4C6B",
"h  c #605F69",
"j  c #696967",
"k  c #686868",
"l  c gray40",
"z  c #70716B",
"x  c #7F7F7E",
"c  c #884816",
"v  c #8E5116",
"b  c #9D531B",
"n  c #9E5A1A",
"m  c #AA5B1D",
"M  c #A1621A",
"N  c #BA791E",
"B  c #B15520",
"V  c #BC6622",
"C  c #CF5E28",
"Z  c #DB502D",
"A  c #E04E2F",
"S  c #E05D2E",
"D  c #C66B24",
"F  c #CD6E26",
"G  c #DB622B",
"H  c #D9672B",
"J  c #CF7027",
"K  c #D17226",
"L  c #DD732A",
"P  c #DE7B29",
"I  c #D57328",
"U  c #E1692D",
"Y  c #E4742C",
"T  c #E17C2B",
"R  c #E97A2D",
"E  c #7C8100",
"W  c #828600",
"Q  c #868B00",
"!  c #979C00",
"~  c #999E00",
"^  c #AB8513",
"/  c #9CA100",
"(  c #A2A600",
")  c #A4AA00",
"_  c #AAAF00",
"`  c #B8AC02",
"'  c #B5AB04",
"]  c #AAB000",
"[  c #B9B800",
"{  c #BABE1F",
"}  c #8D922C",
"|  c #929728",
" . c #9DA22B",
".. c #C8BC0E",
"X. c #DAB21D",
"o. c #E4BF1C",
"O. c #DF8629",
"+. c #DF8928",
"@. c #D49A21",
"#. c #E5832A",
"$. c #EB822D",
"%. c #E08828",
"&. c #E18E27",
"*. c #F2832F",
"=. c #E89B28",
"-. c #E3AE22",
";. c #EBBD21",
":. c #F3B123",
">. c #BAC000",
",. c #BCC11E",
"<. c #C4CB00",
"1. c #CBCE03",
"2. c #D3CF0A",
"3. c #CDD400",
"4. c #CAD10D",
"5. c #C2D200",
"6. c #D0D700",
"7. c #D7DE18",
"8. c #ECD318",
"9. c #EDD818",
"0. c #F0D719",
"q. c #E4EB01",
"w. c #ECE909",
"e. c #FEEC05",
"r. c #FBE30E",
"t. c #EBF300",
"y. c #EAF109",
"u. c #E6F300",
"i. c #FEF302",
"p. c #F6FD01",
"a. c #FCFF00",
"s. c #F4F10C",
"d. c #F6FD0B",
"f. c #FFFF0B",
"g. c #F0F710",
"h. c #FEFF1F",
"j. c #D4DB2F",
"k. c #D4DB30",
"l. c #E0E72B",
"z. c #FEFF22",
"x. c #81817E",
"c. c #87887B",
"v. c #C5CB4B",
"b. c #CDD342",
"n. c #F5FC4D",
"m. c #DAE06B",
"M. c #F4FA7B",
"N. c #757482",
"B. c #7A7980",
"V. c #9F9F9F",
"C. c #A1A19D",
"Z. c #F1F699",
"A. c #FAFEA9",
"S. c #CDCDCF",
"D. c #D0D0D1",
"F. c #E3E2ED",
"G. c #EAEAE9",
"H. c #E2E2E2",
"J. c #FEFEFE",
"K. c magenta",
/* pixels */
"K.K.K.K.K.K.K.K.K.K.K.K.K.K.K.K.K.K.K.K.K.K.K.K.K.K.K.K.K.K.K.K.K.K.K.K.K.K.K.K.K.K.K.K.K.K.K.K.K.K.K.K.K.K.K.K.K.K.K.K.K.K.K.K.",
"K.K.K.K.K.K.K.K.K.K.K.K.K.K.K.K.K.K.K.K.K.K.K.K.K.K.K.K.K.K.K.K.K.K.K.K.K.K.K.K.K.K.K.K.K.K.K.K.K.K.K.K.K.K.K.K.K.K.K.K.K.K.K.K.",
"K.K.K.K.K.K.K.K.K.K.K.K.K.K.K.K.K.K.K.K.K.K.K.K.K.K.K.K.K.K.K.K.K.K.K.K.K.K.K.K.K.K.K.K.K.K.K.K.K.K.K.K.K.K.K.K.K.K.K.K.K.K.K.K.",
"K.K.K.K.K.K.K.K.K.K.K.K.K.K.K.K.K.K.K.K.K.K.K.K.K.K.K.K.K.K.K.K.K.K.K.K.K.K.K.K.K.K.K.K.K.K.K.K.K.K.K.K.K.K.K.K.K.K.K.K.K.K.K.K.",
"K.K.K.K.K.K.K.K.K.K.K.K.K.K.K.K.K.K.K.K.K.K.K.K.K.K.K.K.K.K.K.K.K.K.K.K.K.K.K.K.K.K.K.K.K.K.K.K.K.K.K.K.K.K.K.K.K.K.K.K.K.K.K.K.",
"K.K.K.K.K.K.K.K.K.K.K.K.K.K.K.K.K.K.K.K.K.K.K.K.K.K.K.K.K.K.K.K.K.K.K.K.K.K.K.K.K.K.K.K.K.K.K.K.K.K.K.K.K.K.K.K.K.K.K.K.K.K.K.K.",
"K.K.K.K.K.K.K.K.K.K.K.K.K.K.K.K.K.K.K.K.K.K.K.K.K.K.K.K.K.K.K.K.K.K.K.K.K.K.K.K.K.K.K.K.K.K.K.K.K.K.K.K.K.K.K.K.K.K.K.K.K.K.K.K.",
"K.K.K.K.K.K.K.K.K.K.K.K.K.K.K.K.K.K.K.K.K.K.K.K.K.K.K.K.K.K.K.K.K.K.K.K.K.K.K.K.K.K.K.K.K.K.K.K.K.K.K.K.K.K.K.K.K.K.K.K.K.K.K.K.",
"K.K.K.K.K.K.K.K.K.K.K.K.K.K.K.K.K.K.K.K.K.K.K.K.K.K.K.K.K.K.K.K.K.K.K.K.K.K.K.K.K.K.K.K.K.K.K.K.K.K.K.K.K.K.K.K.K.K.K.K.K.K.K.K.",
"K.K.K.K.K.K.K.K.K.K.K.K.K.K.K.K.K.K.K.K.K.K.K.K.K.K.                        K.K.K.K.K.K.K.K.K.K.K.K.K.K.K.K.K.K.K.K.K.K.K.K.K.K.",
"K.K.K.K.K.K.K.K.K.K.K.K.K.K.K.K.K.K.K.K.K.K.K.K.K.W ( / / ~ ~ ~ ~ ~ ~ / / ( W K.K.K.K.K.K.K.K.K.K.K.K.K.K.K.K.K.K.K.K.K.K.K.K.K.",
"K.K.K.K.K.K.K.K.K.K.K.K.K.K.K.K.K.K.K.K.K.K.      ) a.a.a.a.a.a.a.a.a.a.a.a.]   #   K.K.K.K.K.K.K.K.K.K.K.K.K.K.K.K.K.K.K.K.K.K.",
"K.K.K.K.K.K.K.K.K.K.K.K.K.K.K.K.K.K.K.K.K.K.f W s [ p.p.y.l.l.l.l.l.l.g.p.p.' 8 a i K.K.K.K.K.K.K.K.K.K.K.K.K.K.K.K.K.K.K.K.K.K.",
"K.K.K.K.K.K.K.K.K.K.K.K.K.K.K.K.K.K.K.      <.f.a.a.a.f.q.            q.f.a.;.Z Y B       K.K.K.K.K.K.K.K.K.K.K.K.K.K.K.K.K.K.K.",
"K.K.K.K.K.K.K.K.K.K.K.K.K.K.K.K.K.K.K.l z g k.p.d.p.q.t.j.h j l k l h j.t.u.o.O.=.N 7 w q K.K.K.K.K.K.K.K.K.K.K.K.K.K.K.K.K.K.K.",
"K.K.K.K.K.K.K.K.K.K.K.K.K.K.K.K.  =   H.J.J.A.p.z.5.* 1 c.J.J.J.J.J.J.c.1 * <.a.p.8.G P D   .   K.K.K.K.K.K.K.K.K.K.K.K.K.K.K.K.",
"K.K.K.K.K.K.K.K.K.K.K.K.K.K.K.K.  =   G.J.J.A.p.z.<.*   B.J.J.J.J.J.J.B.  * <.a.p.0.G #.F   +   K.K.K.K.K.K.K.K.K.K.K.K.K.K.K.K.",
"K.K.K.K.K.K.K.K.K.K.K.K.K.K.K.K.  =   D.G.F.Z.p.z.<.*   x.J.J.J.J.J.J.x.  * <.a.p.8.G #.D   .   K.K.K.K.K.K.K.K.K.K.K.K.K.K.K.K.",
"K.K.K.K.K.K.K.K.K.K.K.K.K.K.K.K.  =   S.G.F.Z.p.h.<.*   x.J.J.J.J.J.J.x.  * <.a.a.9.G T D   .   K.K.K.K.K.K.K.K.K.K.K.K.K.K.K.K.",
"K.K.K.K.K.K.K.K.K.K.K.K.K.K.K.K.o $   m.M.M.n.p.f.<.*   x.J.J.J.J.J.J.x.  * 1.a.p.9.G T D   +   K.K.K.K.K.K.K.K.K.K.K.K.K.K.K.K.",
"K.K.K.K.K.K.K.K.K.K.K.K.K.K.K.K.o $   u.a.a.a.d.a.<.*   N.J.J.J.J.J.J.N.  * <.a.p.9.U $.F   .   K.K.K.K.K.K.K.K.K.K.K.K.K.K.K.K.",
"K.K.K.K.K.K.K.K.K.K.K.K.K.K.K.K.K.K.K.|  .} 7.a.a.u.4.3.v.V.C.C.C.C.V.v.3.4.q.p.a.2.9 v c K.K.K.K.K.K.K.K.K.K.K.K.K.K.K.K.K.K.K.",
"K.K.K.K.K.K.K.K.K.K.K.K.K.K.K.K.K.K.K.      3.a.a.a.a.f.q.            q.f.a.a.a.a.3.  X   K.K.K.K.K.K.K.K.K.K.K.K.K.K.K.K.K.K.K.",
"K.K.K.K.K.K.K.K.K.K.K.K.K.K.K.K.K.K.K.K.K.K./ [ ] 3.p.p.y.,.,.,.,.,.{ y.p.a.6._ >./ K.K.K.K.K.K.K.K.K.K.K.K.K.K.K.K.K.K.K.K.K.K.",
"K.K.K.K.K.K.K.K.K.K.K.K.K.K.K.K.K.K.K.K.K.K.      ( a.a.a.a.a.a.a.a.a.a.a.a.)       K.K.K.K.K.K.K.K.K.K.K.K.K.K.K.K.K.K.K.K.K.K.",
"K.K.K.K.K.K.K.K.K.K.K.K.K.K.K.K.K.K.K.K.K.K.K.t   ! 3.<.6.p.p.p.8.8.8.1.<.3.~   y K.K.K.K.K.K.K.K.K.K.K.K.K.K.K.K.K.K.K.K.K.K.K.",
"K.K.K.K.K.K.K.K.K.K.K.K.K.K.K.K.K.K.K.K.K.K.K.K.K.K.    s a.p.p.P G U 8     K.K.K.K.K.K.K.K.K.K.K.K.K.K.K.K.K.K.K.K.K.K.K.K.K.K.",
"K.K.K.K.K.K.K.K.K.K.K.K.K.K.K.K.K.K.K.K.K.K.K.K.K.K.1   E a.p.s.%.L T p X < K.K.K.K.K.K.K.K.K.K.K.K.K.K.K.K.K.K.K.K.K.K.K.K.K.K.",
"K.K.K.K.K.K.K.K.K.K.K.K.K.K.K.K.K.K.K.K.K.K.K.K.K.K.2   d a.p.p.%.L T e   & K.K.K.K.K.K.K.K.K.K.K.K.K.K.K.K.K.K.K.K.K.K.K.K.K.K.",
"K.K.K.K.K.K.K.K.K.K.K.K.K.K.K.K.K.K.K.K.K.K.K.K.K.K.%   d a.p.d.%.L T e   + K.K.K.K.K.K.K.K.K.K.K.K.K.K.K.K.K.K.K.K.K.K.K.K.K.K.",
"K.K.K.K.K.K.K.K.K.K.K.K.K.K.K.K.K.K.K.K.K.K.K.K.K.K.%   d a.p.p.%.L T r   @ K.K.K.K.K.K.K.K.K.K.K.K.K.K.K.K.K.K.K.K.K.K.K.K.K.K.",
"K.K.K.K.K.K.K.K.K.K.K.K.K.K.K.K.K.K.K.K.K.K.K.K.K.K.%   d p.p.p.#.L T e   @ K.K.K.K.K.K.K.K.K.K.K.K.K.K.K.K.K.K.K.K.K.K.K.K.K.K.",
"K.K.K.K.K.K.K.K.K.K.K.K.K.K.K.K.K.K.K.K.K.K.K.K.K.K.%   d p.p.d.O.L T r   @ K.K.K.K.K.K.K.K.K.K.K.K.K.K.K.K.K.K.K.K.K.K.K.K.K.K.",
"K.K.K.K.K.K.K.K.K.K.K.K.K.K.K.K.K.K.K.K.K.K.K.K.K.K.%   d a.p.p.O.L T e   + K.K.K.K.K.K.K.K.K.K.K.K.K.K.K.K.K.K.K.K.K.K.K.K.K.K.",
"K.K.K.K.K.K.K.K.K.K.K.K.K.K.K.K.K.K.K.K.K.K.K.K.K.K.%   d a.p.p.O.L P e   @ K.K.K.K.K.K.K.K.K.K.K.K.K.K.K.K.K.K.K.K.K.K.K.K.K.K.",
"K.K.K.K.K.K.K.K.K.K.K.K.K.K.K.K.K.K.K.K.K.K.K.K.K.K.%   d a.a.s.O.L T r   @ K.K.K.K.K.K.K.K.K.K.K.K.K.K.K.K.K.K.K.K.K.K.K.K.K.K.",
"K.K.K.K.K.K.K.K.K.K.K.K.K.K.K.K.K.K.K.K.K.K.K.K.K.K.%   d p.p.p.O.L T e   @ K.K.K.K.K.K.K.K.K.K.K.K.K.K.K.K.K.K.K.K.K.K.K.K.K.K.",
"K.K.K.K.K.K.K.K.K.K.K.K.K.K.K.K.K.K.K.K.K.K.K.K.K.K.%   d a.p.p.O.L T e   + K.K.K.K.K.K.K.K.K.K.K.K.K.K.K.K.K.K.K.K.K.K.K.K.K.K.",
"K.K.K.K.K.K.K.K.K.K.K.K.K.K.K.K.K.K.K.K.K.K.K.K.K.K.%   d a.p.p.O.L T e   + K.K.K.K.K.K.K.K.K.K.K.K.K.K.K.K.K.K.K.K.K.K.K.K.K.K.",
"K.K.K.K.K.K.K.K.K.K.K.K.K.K.K.K.K.K.K.K.K.K.K.K.K.K.%   d a.p.p.O.L T e   + K.K.K.K.K.K.K.K.K.K.K.K.K.K.K.K.K.K.K.K.K.K.K.K.K.K.",
"K.K.K.K.K.K.K.K.K.K.K.K.K.K.K.K.K.K.K.K.K.K.K.K.K.K.%   d a.p.p.O.L T r   + K.K.K.K.K.K.K.K.K.K.K.K.K.K.K.K.K.K.K.K.K.K.K.K.K.K.",
"K.K.K.K.K.K.K.K.K.K.K.K.K.K.K.K.K.K.K.K.K.K.K.K.K.K.%   d a.p.s.O.L T r   @ K.K.K.K.K.K.K.K.K.K.K.K.K.K.K.K.K.K.K.K.K.K.K.K.K.K.",
"K.K.K.K.K.K.K.K.K.K.K.K.K.K.K.K.K.K.K.K.K.K.K.K.K.K.%   d a.p.p.O.L T r   + K.K.K.K.K.K.K.K.K.K.K.K.K.K.K.K.K.K.K.K.K.K.K.K.K.K.",
"K.K.K.K.K.K.K.K.K.K.K.K.K.K.K.K.K.K.K.K.K.K.K.K.K.K.%   d p.p.p.O.L T r   @ K.K.K.K.K.K.K.K.K.K.K.K.K.K.K.K.K.K.K.K.K.K.K.K.K.K.",
"K.K.K.K.K.K.K.K.K.K.K.K.K.K.K.K.K.K.K.K.K.K.K.K.K.K.%   d a.a.s.O.L T r   @ K.K.K.K.K.K.K.K.K.K.K.K.K.K.K.K.K.K.K.K.K.K.K.K.K.K.",
"K.K.K.K.K.K.K.K.K.K.K.K.K.K.K.K.K.K.K.K.K.K.K.K.K.K.%   E a.p.p.O.L T r   + K.K.K.K.K.K.K.K.K.K.K.K.K.K.K.K.K.K.K.K.K.K.K.K.K.K.",
"K.K.K.K.K.K.K.K.K.K.K.K.K.K.K.K.K.K.K.K.K.K.K.K.K.K.%   d p.p.p.O.L T p # < K.K.K.K.K.K.K.K.K.K.K.K.K.K.K.K.K.K.K.K.K.K.K.K.K.K.",
"K.K.K.K.K.K.K.K.K.K.K.K.K.K.K.K.K.K.K.K.K.K.K.K.K.K.%   E p.p.p.O.H T 0                         K.K.K.K.K.K.K.K.K.K.K.K.K.K.K.K.",
"K.K.K.K.K.K.K.K.K.K.K.K.K.K.K.K.K.K.K.K.K.K.K.K.K.K.%   d p.p.p.&.T %.a 4 y 5 > 3 > : > ,       K.K.K.K.K.K.K.K.K.K.K.K.K.K.K.K.",
"K.K.K.K.K.K.K.K.K.K.K.K.K.K.K.K.K.K.K.K.K.K.K.K.K.K.%   E a.p.p.r.r.r.w.t.t.X.C K K K I V   +   K.K.K.K.K.K.K.K.K.K.K.K.K.K.K.K.",
"K.K.K.K.K.K.K.K.K.K.K.K.K.K.K.K.K.K.K.K.K.K.K.K.K.K.%   d p.p.p.i.i.e.a.a.a.;.S T Y T R J   .   K.K.K.K.K.K.K.K.K.K.K.K.K.K.K.K.",
"K.K.K.K.K.K.K.K.K.K.K.K.K.K.K.K.K.K.K.K.K.K.K.K.K.K.%   d a.p.p.e.e.e.p.p.p.s.w.s...6 p w K.K.K.K.K.K.K.K.K.K.K.K.K.K.K.K.K.K.K.",
"K.K.K.K.K.K.K.K.K.K.K.K.K.K.K.K.K.K.K.K.K.K.K.K.K.K.%   E a.a.a.i.e.e.p.p.p.p.a.a.5.      K.K.K.K.K.K.K.K.K.K.K.K.K.K.K.K.K.K.K.",
"K.K.K.K.K.K.K.K.K.K.K.K.K.K.K.K.K.K.K.K.K.K.K.K.K.K.o   u / ! ( e.e.e.e.i.i.8.-.;.@.B V m   .   K.K.K.K.K.K.K.K.K.K.K.K.K.K.K.K.",
"K.K.K.K.K.K.K.K.K.K.K.K.K.K.K.K.K.K.K.K.K.K.K.K.K.K.  o         i.i.i.i.i.a.:.A U U $.*.L   +   K.K.K.K.K.K.K.K.K.K.K.K.K.K.K.K.",
"K.K.K.K.K.K.K.K.K.K.K.K.K.K.K.K.K.K.K.K.K.K.K.K.K.K.  K.% 5 1 y ' ` ` ` ` ` ^ b M m v m c       K.K.K.K.K.K.K.K.K.K.K.K.K.K.K.K.",
"K.K.K.K.K.K.K.K.K.K.K.K.K.K.K.K.K.K.K.K.K.K.K.K.K.K.K.K.K.                                      K.K.K.K.K.K.K.K.K.K.K.K.K.K.K.K.",
"K.K.K.K.K.K.K.K.K.K.K.K.K.K.K.K.K.K.K.K.K.K.K.K.K.K.K.K.K.    o < 1 1 1 1 1 ; - - - - - -       K.K.K.K.K.K.K.K.K.K.K.K.K.K.K.K.",
"K.K.K.K.K.K.K.K.K.K.K.K.K.K.K.K.K.K.K.K.K.K.K.K.K.K.K.K.K.K.K.K.K.K.K.K.K.K.K.K.K.K.K.K.K.K.K.K.K.K.K.K.K.K.K.K.K.K.K.K.K.K.K.K.",
"K.K.K.K.K.K.K.K.K.K.K.K.K.K.K.K.K.K.K.K.K.K.K.K.K.K.K.K.K.K.K.K.K.K.K.K.K.K.K.K.K.K.K.K.K.K.K.K.K.K.K.K.K.K.K.K.K.K.K.K.K.K.K.K.",
"K.K.K.K.K.K.K.K.K.K.K.K.K.K.K.K.K.K.K.K.K.K.K.K.K.K.K.K.K.K.K.K.K.K.K.K.K.K.K.K.K.K.K.K.K.K.K.K.K.K.K.K.K.K.K.K.K.K.K.K.K.K.K.K.",
"K.K.K.K.K.K.K.K.K.K.K.K.K.K.K.K.K.K.K.K.K.K.K.K.K.K.K.K.K.K.K.K.K.K.K.K.K.K.K.K.K.K.K.K.K.K.K.K.K.K.K.K.K.K.K.K.K.K.K.K.K.K.K.K.",
"K.K.K.K.K.K.K.K.K.K.K.K.K.K.K.K.K.K.K.K.K.K.K.K.K.K.K.K.K.K.K.K.K.K.K.K.K.K.K.K.K.K.K.K.K.K.K.K.K.K.K.K.K.K.K.K.K.K.K.K.K.K.K.K.",
"K.K.K.K.K.K.K.K.K.K.K.K.K.K.K.K.K.K.K.K.K.K.K.K.K.K.K.K.K.K.K.K.K.K.K.K.K.K.K.K.K.K.K.K.K.K.K.K.K.K.K.K.K.K.K.K.K.K.K.K.K.K.K.K."
};
