/* XPM */
static char *result[] = {
/* columns rows colors chars-per-pixel */
"64 64 160 2 ",
"   c #010000",
".  c #0D0300",
"X  c #000F00",
"o  c #0D0E00",
"O  c #0E0E0E",
"+  c #170601",
"@  c #180701",
"#  c #001400",
"$  c #0F1003",
"%  c #1C1D00",
"&  c #181301",
"*  c #00001C",
"=  c #111111",
"-  c #240E02",
";  c #271702",
":  c #361904",
">  c #391E04",
",  c #301503",
"<  c #2B2601",
"1  c #2C2B00",
"2  c #242700",
"3  c #3A2304",
"4  c #243D00",
"5  c #373301",
"6  c #59000F",
"7  c #401006",
"8  c #590010",
"9  c #7B0017",
"0  c #651A10",
"q  c #582C0A",
"w  c #65340D",
"e  c #6D380F",
"r  c #6D370F",
"t  c #3F4200",
"y  c #454401",
"u  c #4A4D00",
"i  c #6C420D",
"p  c #71410F",
"a  c #7B540F",
"s  c #6B6F01",
"d  c #7A7F00",
"f  c #787D20",
"g  c #4E4C6B",
"h  c #605F69",
"j  c #696967",
"k  c #686868",
"l  c gray40",
"z  c #70716B",
"x  c #7F7F7E",
"c  c #884816",
"v  c #8E5116",
"b  c #9D531B",
"n  c #9E5A1A",
"m  c #AA5B1D",
"M  c #A1621A",
"N  c #BA791E",
"B  c #B15520",
"V  c #BC6622",
"C  c #CF5E28",
"Z  c #DB502D",
"A  c #E04E2F",
"S  c #E05D2E",
"D  c #C66B24",
"F  c #CD6E26",
"G  c #DB622B",
"H  c #D9672B",
"J  c #CF7027",
"K  c #D17226",
"L  c #DD732A",
"P  c #DE7B29",
"I  c #D57328",
"U  c #E1692D",
"Y  c #E4742C",
"T  c #E17C2B",
"R  c #E97A2D",
"E  c #7C8100",
"W  c #828600",
"Q  c #868B00",
"!  c #979C00",
"~  c #999E00",
"^  c #AB8513",
"/  c #9CA100",
"(  c #A2A600",
")  c #A4AA00",
"_  c #AAAF00",
"`  c #B8AC02",
"'  c #B5AB04",
"]  c #AAB000",
"[  c #B9B800",
"{  c #BABE1F",
"}  c #8D922C",
"|  c #929728",
" . c #9DA22B",
".. c #C8BC0E",
"X. c #DAB21D",
"o. c #E4BF1C",
"O. c #DF8629",
"+. c #DF8928",
"@. c #D49A21",
"#. c #E5832A",
"$. c #EB822D",
"%. c #E08828",
"&. c #E18E27",
"*. c #F2832F",
"=. c #E89B28",
"-. c #E3AE22",
";. c #EBBD21",
":. c #F3B123",
">. c #BAC000",
",. c #BCC11E",
"<. c #C4CB00",
"1. c #CBCE03",
"2. c #D3CF0A",
"3. c #CDD400",
"4. c #CAD10D",
"5. c #C2D200",
"6. c #D0D700",
"7. c #D7DE18",
"8. c #ECD318",
"9. c #EDD818",
"0. c #F0D719",
"q. c #E4EB01",
"w. c #ECE909",
"e. c #FEEC05",
"r. c #FBE30E",
"t. c #EBF300",
"y. c #EAF109",
"u. c #E6F300",
"i. c #FEF302",
"p. c #F6FD01",
"a. c #FCFF00",
"s. c #F4F10C",
"d. c #F6FD0B",
"f. c #FFFF0B",
"g. c #F0F710",
"h. c #FEFF1F",
"j. c #D4DB2F",
"k. c #D4DB30",
"l. c #E0E72B",
"z. c #FEFF22",
"x. c #81817E",
"c. c #87887B",
"v. c #C5CB4B",
"b. c #CDD342",
"n. c #F5FC4D",
"m. c #DAE06B",
"M. c #F4FA7B",
"N. c #757482",
"B. c #7A7980",
"V. c #9F9F9F",
"C. c #A1A19D",
"Z. c #F1F699",
"A. c #FAFEA9",
"S. c #CDCDCF",
"D. c #D0D0D1",
"F. c #E3E2ED",
"G. c #EAEAE9",
"H. c #E2E2E2",
"J. c #FEFEFE",
"K. c magenta",
/* pixels */
"K.K.K.K.K.K.K.K.K.K.K.K.K.K.K.K.K.K.K.K.K.K.K.K.K.K.K.K.K.K.K.K.K.K.K.K.K.K.K.K.K.K.K.K.K.K.K.K.K.K.K.K.K.K.K.K.K.K.K.K.K.K.K.K.",
"K.K.K.K.K.K.K.K.K.K.K.K.K.K.K.K.K.K.K.K.K.K.K.K.K.K.K.K.K.K.K.K.K.K.K.K.K.K.K.K.K.K.K.K.K.K.K.K.K.K.K.K.K.K.K.K.K.K.K.K.K.K.K.K.",
"K.K.K.K.K.K.K.K.K.K.K.K.K.K.K.K.K.K.K.K.K.K.K.K.K.K.K.K.K.K.K.K.K.K.K.K.K.K.K.K.K.K.K.K.K.K.K.K.K.K.K.K.K.K.K.K.K.K.K.K.K.K.K.K.",
"K.K.K.K.K.K.K.K.K.K.K.K.K.K.K.K.K.K.K.K.K.K.K.K.K.K.K.K.K.K.K.K.K.K.K.K.K.K.K.K.K.K.K.K.K.K.K.K.K.K.K.K.K.K.K.K.K.K.K.K.K.K.K.K.",
"K.K.K.K.K.K.K.K.K.K.K.K.K.K.K.K.K.K.K.K.K.K.K.K.K.K.K.K.K.K.K.K.K.K.K.K.K.K.K.K.K.K.K.K.K.K.K.K.K.K.K.K.K.K.K.K.K.K.K.K.K.K.K.K.",
"K.K.K.K.K.K.K.K.K.K.K.K.K.K.K.K.K.K.K.K.K.K.K.K.K.K.K.K.K.K.K.K.K.K.K.K.K.K.K.K.K.K.K.K.K.K.K.K.K.K.K.K.K.K.K.K.K.K.K.K.K.K.K.K.",
"K.K.K.K.K.K.K.K.K.K.K.K.K.K.K.K.K.K.K.K.K.K.K.K.K.K.K.K.K.K.K.K.K.K.K.K.K.K.K.K.K.K.K.K.K.K.K.K.K.K.K.K.K.K.K.K.K.K.K.K.K.K.K.K.",
"K.K.K.K.K.K.K.K.K.K.K.K.K.K.K.K.K.K.K.K.K.K.K.K.K.K.K.K.K.K.K.K.K.K.K.K.K.K.K.K.K.K.K.K.K.K.K.K.K.K.K.K.K.K.K.K.K.K.K.K.K.K.K.K.",
"K.K.K.K.K.K.K.K.K.K.K.K.K.K.K.K.K.K.K.K.K.K.K.K.K.K.K.K.K.K.K.K.K.K.K.K.K.K.K.K.K.K.K.K.K.K.K.K.K.K.K.K.K.K.K.K.K.K.K.K.K.K.K.K.",
"K.K.K.K.K.K.K.K.K.K.K.K.K.K.K.K.K.K.K.K.K.K.K.K.K.K.                        K.K.K.K.K.K.K.K.K.K.K.K.K.K.K.K.K.K.K.K.K.K.K.K.K.K.",
"K.K.K.K.K.K.K.K.K.K.K.K.K.K.K.K.K.K.K.K.K.K.K.K.K.W ( / / ~ ~ ~ ~ ~ / / / ( W K.K.K.K.K.K.K.K.K.K.K.K.K.K.K.K.K.K.K.K.K.K.K.K.K.",
"K.K.K.K.K.K.K.K.K.K.K.K.K.K.K.K.K.K.K.K.K.K.  #   _ a.a.a.a.a.a.a.a.a.p.a.a.)       K.K.K.K.K.K.K.K.K.K.K.K.K.K.K.K.K.K.K.K.K.K.",
"K.K.K.K.K.K.K.K.K.K.K.K.K.K.K.K.K.K.K.K.K.K.i a 8 ' p.p.y.l.l.l.l.l.l.y.p.p.>.s Q f K.K.K.K.K.K.K.K.K.K.K.K.K.K.K.K.K.K.K.K.K.K.",
"K.K.K.K.K.K.K.K.K.K.K.K.K.K.K.K.K.K.K.      B Y Z ;.a.f.q.            q.f.a.a.p.f.<.      K.K.K.K.K.K.K.K.K.K.K.K.K.K.K.K.K.K.K.",
"K.K.K.K.K.K.K.K.K.K.K.K.K.K.K.K.K.K.K.q w : N =.%.o.u.t.j.h l l j l h j.t.q.p.d.a.b.g j l K.K.K.K.K.K.K.K.K.K.K.K.K.K.K.K.K.K.K.",
"K.K.K.K.K.K.K.K.K.K.K.K.K.K.K.K.  .   D T Z 8.p.a.<.* 1 x.J.J.J.J.J.J.c.1 * <.z.p.A.J.J.H.  = . K.K.K.K.K.K.K.K.K.K.K.K.K.K.K.K.",
"K.K.K.K.K.K.K.K.K.K.K.K.K.K.K.K.  .   F T G 0.p.a.<.*   B.J.J.J.J.J.J.B.  * <.z.p.A.J.J.G.  =   K.K.K.K.K.K.K.K.K.K.K.K.K.K.K.K.",
"K.K.K.K.K.K.K.K.K.K.K.K.K.K.K.K.  .   D #.G 9.p.a.<.*   V.J.J.J.J.J.J.x.  * <.z.p.Z.F.G.D.  O O K.K.K.K.K.K.K.K.K.K.K.K.K.K.K.K.",
"K.K.K.K.K.K.K.K.K.K.K.K.K.K.K.K.. .   D T G 9.p.a.<.*   z J.J.J.J.J.J.x.  * <.h.p.Z.F.G.S.  =   K.K.K.K.K.K.K.K.K.K.K.K.K.K.K.K.",
"K.K.K.K.K.K.K.K.K.K.K.K.K.K.K.K.  .   D #.G 0.p.a.<.*   x J.J.J.J.J.J.x.  * <.f.p.n.M.M.m.  $   K.K.K.K.K.K.K.K.K.K.K.K.K.K.K.K.",
"K.K.K.K.K.K.K.K.K.K.K.K.K.K.K.K.  .   F $.U 9.p.a.<.*   N.J.J.J.J.J.J.N.  * <.a.d.a.a.a.u.  $ . K.K.K.K.K.K.K.K.K.K.K.K.K.K.K.K.",
"K.K.K.K.K.K.K.K.K.K.K.K.K.K.K.K.K.K.K.c v 9 2.p.p.t.4.6.v.V.C.C.C.C.V.v.6.4.q.p.p.7.}  .| K.K.K.K.K.K.K.K.K.K.K.K.K.K.K.K.K.K.K.",
"K.K.K.K.K.K.K.K.K.K.K.K.K.K.K.K.K.K.K.  X   3.a.a.a.p.f.q.            q.f.a.a.a.a.3.      K.K.K.K.K.K.K.K.K.K.K.K.K.K.K.K.K.K.K.",
"K.K.K.K.K.K.K.K.K.K.K.K.K.K.K.K.K.K.K.K.K.K.( >.] 6.p.p.y.{ ,.,.,.,.{ y.p.p.6.] [ ( K.K.K.K.K.K.K.K.K.K.K.K.K.K.K.K.K.K.K.K.K.K.",
"K.K.K.K.K.K.K.K.K.K.K.K.K.K.K.K.K.K.K.K.K.K.      ( a.a.a.a.a.a.a.a.a.a.a.a.(       K.K.K.K.K.K.K.K.K.K.K.K.K.K.K.K.K.K.K.K.K.K.",
"K.K.K.K.K.K.K.K.K.K.K.K.K.K.K.K.K.K.K.K.K.K.K.y   ! 3.<.2.8.8.9.p.p.p.6.<.3.!   t K.K.K.K.K.K.K.K.K.K.K.K.K.K.K.K.K.K.K.K.K.K.K.",
"K.K.K.K.K.K.K.K.K.K.K.K.K.K.K.K.K.K.K.K.K.K.K.K.K.K.    8 U C L d.p.a.s     K.K.K.K.K.K.K.K.K.K.K.K.K.K.K.K.K.K.K.K.K.K.K.K.K.K.",
"K.K.K.K.K.K.K.K.K.K.K.K.K.K.K.K.K.K.K.K.K.K.K.K.K.K.< X p T Y %.p.p.p.W   1 K.K.K.K.K.K.K.K.K.K.K.K.K.K.K.K.K.K.K.K.K.K.K.K.K.K.",
"K.K.K.K.K.K.K.K.K.K.K.K.K.K.K.K.K.K.K.K.K.K.K.K.K.K.&   e T L %.d.p.p.d   2 K.K.K.K.K.K.K.K.K.K.K.K.K.K.K.K.K.K.K.K.K.K.K.K.K.K.",
"K.K.K.K.K.K.K.K.K.K.K.K.K.K.K.K.K.K.K.K.K.K.K.K.K.K.@   e T L %.p.p.a.d   % K.K.K.K.K.K.K.K.K.K.K.K.K.K.K.K.K.K.K.K.K.K.K.K.K.K.",
"K.K.K.K.K.K.K.K.K.K.K.K.K.K.K.K.K.K.K.K.K.K.K.K.K.K.@   e T L %.p.p.a.E   % K.K.K.K.K.K.K.K.K.K.K.K.K.K.K.K.K.K.K.K.K.K.K.K.K.K.",
"K.K.K.K.K.K.K.K.K.K.K.K.K.K.K.K.K.K.K.K.K.K.K.K.K.K.@   e T L %.d.p.p.d   % K.K.K.K.K.K.K.K.K.K.K.K.K.K.K.K.K.K.K.K.K.K.K.K.K.K.",
"K.K.K.K.K.K.K.K.K.K.K.K.K.K.K.K.K.K.K.K.K.K.K.K.K.K.@   r T L O.p.p.p.E   % K.K.K.K.K.K.K.K.K.K.K.K.K.K.K.K.K.K.K.K.K.K.K.K.K.K.",
"K.K.K.K.K.K.K.K.K.K.K.K.K.K.K.K.K.K.K.K.K.K.K.K.K.K.@   r T L O.i.p.a.d   % K.K.K.K.K.K.K.K.K.K.K.K.K.K.K.K.K.K.K.K.K.K.K.K.K.K.",
"K.K.K.K.K.K.K.K.K.K.K.K.K.K.K.K.K.K.K.K.K.K.K.K.K.K.@   r T L O.p.p.p.d   % K.K.K.K.K.K.K.K.K.K.K.K.K.K.K.K.K.K.K.K.K.K.K.K.K.K.",
"K.K.K.K.K.K.K.K.K.K.K.K.K.K.K.K.K.K.K.K.K.K.K.K.K.K.@   r T L O.d.p.p.E   % K.K.K.K.K.K.K.K.K.K.K.K.K.K.K.K.K.K.K.K.K.K.K.K.K.K.",
"K.K.K.K.K.K.K.K.K.K.K.K.K.K.K.K.K.K.K.K.K.K.K.K.K.K.@   r T L O.p.p.p.d   % K.K.K.K.K.K.K.K.K.K.K.K.K.K.K.K.K.K.K.K.K.K.K.K.K.K.",
"K.K.K.K.K.K.K.K.K.K.K.K.K.K.K.K.K.K.K.K.K.K.K.K.K.K.@   r T L O.d.p.a.d   % K.K.K.K.K.K.K.K.K.K.K.K.K.K.K.K.K.K.K.K.K.K.K.K.K.K.",
"K.K.K.K.K.K.K.K.K.K.K.K.K.K.K.K.K.K.K.K.K.K.K.K.K.K.@   r T L O.p.p.a.E   % K.K.K.K.K.K.K.K.K.K.K.K.K.K.K.K.K.K.K.K.K.K.K.K.K.K.",
"K.K.K.K.K.K.K.K.K.K.K.K.K.K.K.K.K.K.K.K.K.K.K.K.K.K.@   r T L O.p.p.p.d   % K.K.K.K.K.K.K.K.K.K.K.K.K.K.K.K.K.K.K.K.K.K.K.K.K.K.",
"K.K.K.K.K.K.K.K.K.K.K.K.K.K.K.K.K.K.K.K.K.K.K.K.K.K.@   e T L O.i.p.p.E   % K.K.K.K.K.K.K.K.K.K.K.K.K.K.K.K.K.K.K.K.K.K.K.K.K.K.",
"K.K.K.K.K.K.K.K.K.K.K.K.K.K.K.K.K.K.K.K.K.K.K.K.K.K.@   r T L O.p.p.p.d   % K.K.K.K.K.K.K.K.K.K.K.K.K.K.K.K.K.K.K.K.K.K.K.K.K.K.",
"K.K.K.K.K.K.K.K.K.K.K.K.K.K.K.K.K.K.K.K.K.K.K.K.K.K.@   e T L O.p.p.a.E   % K.K.K.K.K.K.K.K.K.K.K.K.K.K.K.K.K.K.K.K.K.K.K.K.K.K.",
"K.K.K.K.K.K.K.K.K.K.K.K.K.K.K.K.K.K.K.K.K.K.K.K.K.K.@   e T L O.p.p.p.d   % K.K.K.K.K.K.K.K.K.K.K.K.K.K.K.K.K.K.K.K.K.K.K.K.K.K.",
"K.K.K.K.K.K.K.K.K.K.K.K.K.K.K.K.K.K.K.K.K.K.K.K.K.K.@   r T L O.i.p.p.E   % K.K.K.K.K.K.K.K.K.K.K.K.K.K.K.K.K.K.K.K.K.K.K.K.K.K.",
"K.K.K.K.K.K.K.K.K.K.K.K.K.K.K.K.K.K.K.K.K.K.K.K.K.K.+   r T L O.d.p.a.d   % K.K.K.K.K.K.K.K.K.K.K.K.K.K.K.K.K.K.K.K.K.K.K.K.K.K.",
"K.K.K.K.K.K.K.K.K.K.K.K.K.K.K.K.K.K.K.K.K.K.K.K.K.K.< # e #.P &.d.p.p.d   % K.K.K.K.K.K.K.K.K.K.K.K.K.K.K.K.K.K.K.K.K.K.K.K.K.K.",
"K.K.K.K.K.K.K.K.K.K.K.K.K.K.K.K.                        0 T H P p.p.p.E   % K.K.K.K.K.K.K.K.K.K.K.K.K.K.K.K.K.K.K.K.K.K.K.K.K.K.",
"K.K.K.K.K.K.K.K.K.K.K.K.K.K.K.K.      , : : > 3 > 5 u 4 a #.P &.p.p.p.d   % K.K.K.K.K.K.K.K.K.K.K.K.K.K.K.K.K.K.K.K.K.K.K.K.K.K.",
"K.K.K.K.K.K.K.K.K.K.K.K.K.K.K.K.  .   V I F J K C X.t.q.w.r.r.e.p.p.a.d   % K.K.K.K.K.K.K.K.K.K.K.K.K.K.K.K.K.K.K.K.K.K.K.K.K.K.",
"K.K.K.K.K.K.K.K.K.K.K.K.K.K.K.K.  +   J R T R T S ;.a.a.a.e.i.i.p.p.a.E   % K.K.K.K.K.K.K.K.K.K.K.K.K.K.K.K.K.K.K.K.K.K.K.K.K.K.",
"K.K.K.K.K.K.K.K.K.K.K.K.K.K.K.K.K.K.K.w p 6 ..s.w.s.p.p.p.e.e.e.p.p.p.d   % K.K.K.K.K.K.K.K.K.K.K.K.K.K.K.K.K.K.K.K.K.K.K.K.K.K.",
"K.K.K.K.K.K.K.K.K.K.K.K.K.K.K.K.K.K.K.      <.a.p.p.p.p.p.e.e.e.a.a.a.E   % K.K.K.K.K.K.K.K.K.K.K.K.K.K.K.K.K.K.K.K.K.K.K.K.K.K.",
"K.K.K.K.K.K.K.K.K.K.K.K.K.K.K.K.  .   m V B @.o.-.8.i.e.i.e.e.e.( ~ / u   o K.K.K.K.K.K.K.K.K.K.K.K.K.K.K.K.K.K.K.K.K.K.K.K.K.K.",
"K.K.K.K.K.K.K.K.K.K.K.K.K.K.K.K.. .   L *.$.Y U A :.a.i.i.i.a.e.        o   K.K.K.K.K.K.K.K.K.K.K.K.K.K.K.K.K.K.K.K.K.K.K.K.K.K.",
"K.K.K.K.K.K.K.K.K.K.K.K.K.K.K.K.      c b b m M m ^ ` ` ` ` ` ' y 2 5 % K.  K.K.K.K.K.K.K.K.K.K.K.K.K.K.K.K.K.K.K.K.K.K.K.K.K.K.",
"K.K.K.K.K.K.K.K.K.K.K.K.K.K.K.K.    .                                 K.K.K.K.K.K.K.K.K.K.K.K.K.K.K.K.K.K.K.K.K.K.K.K.K.K.K.K.K.",
"K.K.K.K.K.K.K.K.K.K.K.K.K.K.K.K.      @ - - - ; - ; 1 1 1 1 1 1 .     K.K.K.K.K.K.K.K.K.K.K.K.K.K.K.K.K.K.K.K.K.K.K.K.K.K.K.K.K.",
"K.K.K.K.K.K.K.K.K.K.K.K.K.K.K.K.K.K.K.K.K.K.K.K.K.K.K.K.K.K.K.K.K.K.K.K.K.K.K.K.K.K.K.K.K.K.K.K.K.K.K.K.K.K.K.K.K.K.K.K.K.K.K.K.",
"K.K.K.K.K.K.K.K.K.K.K.K.K.K.K.K.K.K.K.K.K.K.K.K.K.K.K.K.K.K.K.K.K.K.K.K.K.K.K.K.K.K.K.K.K.K.K.K.K.K.K.K.K.K.K.K.K.K.K.K.K.K.K.K.",
"K.K.K.K.K.K.K.K.K.K.K.K.K.K.K.K.K.K.K.K.K.K.K.K.K.K.K.K.K.K.K.K.K.K.K.K.K.K.K.K.K.K.K.K.K.K.K.K.K.K.K.K.K.K.K.K.K.K.K.K.K.K.K.K.",
"K.K.K.K.K.K.K.K.K.K.K.K.K.K.K.K.K.K.K.K.K.K.K.K.K.K.K.K.K.K.K.K.K.K.K.K.K.K.K.K.K.K.K.K.K.K.K.K.K.K.K.K.K.K.K.K.K.K.K.K.K.K.K.K.",
"K.K.K.K.K.K.K.K.K.K.K.K.K.K.K.K.K.K.K.K.K.K.K.K.K.K.K.K.K.K.K.K.K.K.K.K.K.K.K.K.K.K.K.K.K.K.K.K.K.K.K.K.K.K.K.K.K.K.K.K.K.K.K.K.",
"K.K.K.K.K.K.K.K.K.K.K.K.K.K.K.K.K.K.K.K.K.K.K.K.K.K.K.K.K.K.K.K.K.K.K.K.K.K.K.K.K.K.K.K.K.K.K.K.K.K.K.K.K.K.K.K.K.K.K.K.K.K.K.K."
};
